<svg width="304" height="80" viewBox="0 0 304 80" fill="none" xmlns="http://www.w3.org/2000/svg">
<path d="M2.65679 15.8008H0V11.4498H12.1846V15.8008H10.902L14.0627 28.762H14.2001L16.582 19.9685L15.2078 15.8008H13.3298V11.4498H26.2473V15.8008H24.1402L27.7131 28.8078H27.8963L31.057 15.8008H28.675V11.4498H38.386V15.8008H35.6834L30.5073 34.3495H22.0788L19.1472 23.3119L16.124 34.3495H7.78715L2.65679 15.8008Z" fill="black"/>
<path d="M57.7075 33.7999C57.0052 34.0442 56.089 34.2579 54.9591 34.4411C54.3178 34.5327 53.6613 34.609 52.9894 34.6701C52.3482 34.7617 51.6916 34.8075 51.0198 34.8075C48.6683 34.8075 46.5612 34.319 44.6984 33.3419C42.8356 32.3649 41.3698 30.9909 40.301 29.22C39.2627 27.4491 38.7436 25.4034 38.7436 23.0829C38.7436 20.7013 39.2627 18.5945 40.301 16.7626C41.3698 14.9306 42.8509 13.5108 44.7442 12.5032C46.6376 11.4956 48.8058 10.9918 51.2488 10.9918C53.6918 10.9918 55.8295 11.4956 57.6617 12.5032C59.5245 13.4803 60.9598 14.8695 61.9676 16.671C62.9753 18.4419 63.4945 20.5028 63.525 22.8539C63.525 23.0676 63.5097 23.2966 63.4792 23.5409C63.4792 23.7546 63.4639 23.9836 63.4334 24.2279H46.943C47.0651 25.724 47.3094 26.9911 47.6759 28.0292C48.0729 29.0673 48.5767 29.8459 49.1875 30.365C49.7982 30.884 50.5006 31.1436 51.2946 31.1436C51.997 31.1436 52.7757 30.884 53.6307 30.365C54.5163 29.8459 55.2798 29.2352 55.9211 28.533C56.5929 27.8307 57.0052 27.2048 57.1579 26.6552V26.3804H61.7843V35.8609H57.7075V33.7999ZM55.3256 21.4799C55.1729 19.9227 54.9133 18.6556 54.5469 17.6785C54.1804 16.671 53.7071 15.9229 53.1269 15.4344C52.5466 14.9459 51.8748 14.7016 51.1114 14.7016C50.3479 14.7016 49.6761 14.9611 49.0959 15.4802C48.5157 15.9687 48.0423 16.7168 47.6759 17.7243C47.34 18.7319 47.1109 19.9838 46.9888 21.4799H55.3256Z" fill="black"/>
<path d="M81.9547 34.8075C80.4889 34.8075 79.2063 34.5327 78.1069 33.9831C77.0076 33.403 76.0762 32.5481 75.3127 31.4183V34.3495H67.8004V6.64091H64.1359V2.28997H75.6792V14.0604C76.4121 13.0528 77.2977 12.2895 78.336 11.7704C79.4048 11.2514 80.611 10.9918 81.9547 10.9918C83.9397 10.9918 85.7261 11.4956 87.3141 12.5032C88.9021 13.4803 90.1388 14.8695 91.0244 16.671C91.91 18.4724 92.3528 20.5486 92.3528 22.8997C92.3528 25.2507 91.91 27.3269 91.0244 29.1284C90.1388 30.9298 88.9021 32.3343 87.3141 33.3419C85.7567 34.319 83.9702 34.8075 81.9547 34.8075ZM79.756 30.136C80.5805 30.136 81.2829 29.8917 81.8631 29.4032C82.4738 28.8841 82.9472 28.0903 83.2831 27.0216C83.619 25.953 83.787 24.579 83.787 22.8997C83.787 21.2204 83.619 19.8464 83.2831 18.7777C82.9472 17.6785 82.4738 16.8847 81.8631 16.3962C81.2829 15.9076 80.5805 15.6634 79.756 15.6634C78.9009 15.6634 78.1222 15.984 77.4198 16.6252C76.748 17.2358 76.2136 18.0907 75.8166 19.1899C75.4501 20.2891 75.2669 21.5257 75.2669 22.8997C75.2669 24.2431 75.4501 25.4644 75.8166 26.5636C76.2136 27.6628 76.748 28.533 77.4198 29.1742C78.1222 29.8154 78.9009 30.136 79.756 30.136Z" fill="black"/>
<path d="M96.3609 21.7089H100.667V21.9379C100.667 23.0981 101.048 24.3652 101.812 25.7392C102.606 27.1132 103.614 28.2735 104.835 29.22C106.087 30.136 107.339 30.594 108.591 30.594C109.507 30.594 110.271 30.3497 110.882 29.8612C111.492 29.3421 111.935 28.6551 112.21 27.8002C112.515 26.9147 112.668 25.9072 112.668 24.7774C112.668 23.5561 112.5 22.5333 112.164 21.7089C111.828 20.8845 111.37 20.2738 110.79 19.8769C110.24 19.4495 109.614 19.2357 108.912 19.2357C108.393 19.2357 107.858 19.3426 107.309 19.5563C106.79 19.7701 106.301 20.0754 105.843 20.4723L105.385 20.8845L103.186 17.9533L112.531 10.0301H104.515C103.721 10.0301 103.11 10.0759 102.682 10.1675C102.285 10.2591 101.98 10.427 101.766 10.6712C101.583 10.9155 101.491 11.2972 101.491 11.8162V13.3734H97.1396V0H101.537V2.28997H121.555V6.59511L110.561 16.4878C110.958 16.3351 111.401 16.2282 111.889 16.1672C112.378 16.0756 112.836 16.0298 113.264 16.0298C114.913 16.0298 116.394 16.3962 117.707 17.129C119.051 17.8312 120.104 18.8388 120.868 20.1517C121.631 21.4341 122.013 22.9149 122.013 24.5942C122.013 26.5484 121.509 28.304 120.501 29.8612C119.493 31.4184 118.043 32.6549 116.149 33.5709C114.256 34.4564 112.012 34.8991 109.416 34.8991C108.439 34.8991 107.461 34.7922 106.484 34.5785C105.507 34.3648 104.637 34.0747 103.873 33.7083C103.385 33.5557 102.865 33.403 102.316 33.2503C101.797 33.0671 101.277 32.9145 100.758 32.7923V35.6777H96.3609V21.7089Z" fill="black"/>
<path d="M76.2224 69.6035H79.7495V69.9699C79.9022 70.7943 80.513 71.6493 81.5818 72.5347C82.6506 73.3896 83.9485 74.1071 85.4754 74.6873C87.0328 75.2674 88.5444 75.5575 90.0102 75.5575C90.7737 75.5575 91.3845 75.4353 91.8425 75.1911C92.3311 74.9163 92.5754 74.5499 92.5754 74.0919C92.5754 73.756 92.438 73.466 92.1632 73.2217C91.9189 72.9774 91.4302 72.7179 90.6973 72.4431C89.995 72.1683 88.8956 71.8172 87.3993 71.3897C84.9257 70.7485 82.8949 70.0615 81.307 69.3288C79.7495 68.5654 78.5586 67.6342 77.734 66.535C76.9095 65.4358 76.4973 64.0466 76.4973 62.3673C76.4973 60.1078 77.2912 58.3827 78.8792 57.1919C80.4977 55.9706 82.6201 55.36 85.2463 55.36C86.2541 55.36 87.155 55.421 87.9489 55.5431C88.7429 55.6347 89.5827 55.7874 90.4683 56.0011C91.1707 56.1538 91.873 56.3217 92.5754 56.5049V54.3524H96.469V64.5656H92.8503V64.2908C92.7281 63.5275 92.1479 62.7489 91.1096 61.9551C90.0713 61.1612 88.8498 60.5047 87.4451 59.9857C86.0709 59.4666 84.8952 59.2071 83.9179 59.2071C83.3377 59.2071 82.8644 59.3292 82.4979 59.5735C82.1315 59.8178 81.9483 60.1383 81.9483 60.5353C81.9483 61.0849 82.2078 61.5429 82.727 61.9093C83.2461 62.2451 84.208 62.6573 85.6128 63.1458C85.9182 63.2374 86.2388 63.3443 86.5747 63.4664C86.9412 63.558 87.3076 63.6649 87.6741 63.787C87.8573 63.8481 88.0558 63.9092 88.2696 63.9702C88.4834 64.0313 88.6818 64.0924 88.8651 64.1534C91.2165 64.8862 93.0335 65.5885 94.3161 66.2602C95.5987 66.9014 96.5453 67.68 97.1561 68.596C97.7974 69.4814 98.118 70.6569 98.118 72.1225C98.118 74.5041 97.324 76.3055 95.7361 77.5268C94.1786 78.7176 92.041 79.313 89.3231 79.313C88.6818 79.313 87.9795 79.2825 87.216 79.2214C86.4526 79.1603 85.6739 79.084 84.8799 78.9924C82.6812 78.7481 81.0779 78.4734 80.0702 78.168V80H76.2224V69.6035Z" fill="black"/>
<path d="M110.976 79.1756C109.205 79.1756 107.678 78.7634 106.395 77.939C105.113 77.1146 104.12 75.9544 103.418 74.4583C102.715 72.9316 102.364 71.1302 102.364 69.054V60.1689H99.3409V55.8179H110.334V68.4586C110.334 70.4127 110.609 71.8935 111.159 72.9011C111.709 73.8782 112.472 74.3667 113.449 74.3667C114.182 74.3667 114.824 74.1071 115.373 73.5881C115.923 73.0385 116.335 72.2752 116.61 71.2981C116.915 70.3211 117.068 69.1761 117.068 67.8632V60.1689H113.312V55.8179H128.52V60.1689H124.993V74.3667H128.52V78.7176H117.48V75.6491C116.778 76.8093 115.877 77.6948 114.778 78.3054C113.709 78.8856 112.442 79.1756 110.976 79.1756Z" fill="black"/>
<path d="M131.101 74.3667H134.629V60.1689H131.101V55.8179H142.141V58.7491C142.843 57.6194 143.714 56.7797 144.752 56.2301C145.79 55.65 147.012 55.36 148.416 55.36C150.004 55.36 151.379 55.7263 152.539 56.4591C153.699 57.1919 154.6 58.2606 155.242 59.6651C155.883 58.2606 156.784 57.1919 157.944 56.4591C159.135 55.7263 160.555 55.36 162.204 55.36C164.983 55.36 167.151 56.2454 168.709 58.0163C170.266 59.7872 171.045 62.2604 171.045 65.4358V74.3667H174.068V78.7176H160.509V74.3667H163.075V66.0312C163.075 64.0771 162.815 62.6115 162.296 61.6345C161.807 60.6574 161.105 60.1689 160.189 60.1689C159.517 60.1689 158.921 60.4132 158.402 60.9017C157.883 61.3902 157.486 62.0619 157.211 62.9168C156.936 63.7718 156.799 64.7336 156.799 65.8022V74.3667H159.364V78.7176H146.263V74.3667H148.829V66.0312C148.829 64.0771 148.569 62.6115 148.05 61.6345C147.561 60.6574 146.859 60.1689 145.943 60.1689C145.271 60.1689 144.675 60.4437 144.156 60.9933C143.637 61.5123 143.24 62.2604 142.965 63.2374C142.69 64.2145 142.553 65.3442 142.553 66.6266V74.3667H145.118V78.7176H131.101V74.3667Z" fill="black"/>
<path d="M176.684 74.3667H180.212V60.1689H176.684V55.8179H187.724V58.7491C188.426 57.6194 189.297 56.7797 190.335 56.2301C191.373 55.65 192.595 55.36 193.999 55.36C195.587 55.36 196.962 55.7263 198.122 56.4591C199.282 57.1919 200.183 58.2606 200.825 59.6651C201.466 58.2606 202.367 57.1919 203.527 56.4591C204.718 55.7263 206.138 55.36 207.787 55.36C210.566 55.36 212.734 56.2454 214.292 58.0163C215.849 59.7872 216.628 62.2604 216.628 65.4358V74.3667H219.651V78.7176H206.092V74.3667H208.658V66.0312C208.658 64.0771 208.398 62.6115 207.879 61.6345C207.39 60.6574 206.688 60.1689 205.772 60.1689C205.1 60.1689 204.504 60.4132 203.985 60.9017C203.466 61.3902 203.069 62.0619 202.794 62.9168C202.519 63.7718 202.382 64.7336 202.382 65.8022V74.3667H204.947V78.7176H191.846V74.3667H194.412V66.0312C194.412 64.0771 194.152 62.6115 193.633 61.6345C193.144 60.6574 192.442 60.1689 191.526 60.1689C190.854 60.1689 190.259 60.4437 189.739 60.9933C189.22 61.5123 188.823 62.2604 188.548 63.2374C188.274 64.2145 188.136 65.3442 188.136 66.6266V74.3667H190.701V78.7176H176.684V74.3667Z" fill="black"/>
<path d="M222.268 74.3667H225.795V60.1689H222.268V55.8179H233.719V74.3667H237.246V78.7176H222.268V74.3667ZM224.008 44.5971H234.544L229.505 53.757H229.047L224.008 44.5971Z" fill="black"/>
<path d="M249.272 78.9466C246.89 78.9466 245.028 78.3054 243.684 77.023C242.371 75.7407 241.714 73.9392 241.714 71.6187V60.1689H237.958V55.8179H239.974C241.684 55.8179 243.073 55.3294 244.142 54.3524C245.211 53.3753 245.745 51.9097 245.745 49.9556V48.948H249.639V55.8179H256.143V60.1689H249.639V71.3897C249.639 72.3362 249.868 73.069 250.326 73.5881C250.815 74.0766 251.486 74.3209 252.341 74.3209C253.013 74.3209 253.731 74.2445 254.494 74.0919C255.288 73.9087 255.96 73.7102 256.51 73.4965V77.9848C255.563 78.2596 254.464 78.4886 253.212 78.6718C251.99 78.855 250.677 78.9466 249.272 78.9466Z" fill="black"/>
<path d="M124.526 39.1584H128.053V15.8008H124.526V11.4498H135.565V14.3352C136.328 13.236 137.26 12.4116 138.359 11.862C139.489 11.2819 140.787 10.9918 142.253 10.9918C144.238 10.9918 146.024 11.4804 147.612 12.4574C149.2 13.4345 150.437 14.8237 151.323 16.6252C152.208 18.4266 152.651 20.5181 152.651 22.8997C152.651 25.2507 152.193 27.3269 151.277 29.1284C150.391 30.9298 149.154 32.3343 147.566 33.3419C146.009 34.319 144.238 34.8075 142.253 34.8075C140.879 34.8075 139.672 34.548 138.634 34.0289C137.596 33.5098 136.71 32.7313 135.977 31.6931V39.3874H141.703V43.5094H124.526V39.1584ZM140.054 30.136C140.848 30.136 141.55 29.8917 142.161 29.4032C142.772 28.8841 143.23 28.0903 143.535 27.0216C143.871 25.953 144.039 24.579 144.039 22.8997C144.039 21.2204 143.871 19.8464 143.535 18.7777C143.23 17.6785 142.772 16.8847 142.161 16.3962C141.55 15.9076 140.848 15.6634 140.054 15.6634C139.169 15.6634 138.375 15.984 137.672 16.6252C137 17.2358 136.481 18.0907 136.115 19.1899C135.748 20.2891 135.565 21.5257 135.565 22.8997C135.565 24.2431 135.748 25.4644 136.115 26.5636C136.481 27.6628 137 28.533 137.672 29.1742C138.375 29.8154 139.169 30.136 140.054 30.136Z" fill="black"/>
<path d="M154.497 29.9986H158.024V15.8008H154.497V11.4498H165.536V14.5642C165.994 13.465 166.651 12.6101 167.506 11.9994C168.361 11.3888 169.338 11.0834 170.438 11.0834C170.896 11.0834 171.43 11.175 172.041 11.3582C172.224 11.4193 172.407 11.4804 172.59 11.5414C172.774 11.6025 172.942 11.6636 173.094 11.7246V9.57206H177.171V21.7089H173.232V21.0677C173.232 20.3349 172.987 19.5869 172.499 18.8235C172.041 18.0297 171.461 17.3732 170.758 16.8542C170.086 16.3351 169.476 16.0756 168.926 16.0756C168.346 16.0756 167.827 16.3198 167.369 16.8084C166.941 17.2664 166.59 17.9381 166.315 18.8235C166.071 19.6785 165.949 20.7166 165.949 21.9379V29.9986H171.537V34.3495H154.497V29.9986Z" fill="black"/>
<path d="M180.129 29.9986H183.656V15.8008H180.129V11.4498H191.581V29.9986H195.108V34.3495H180.129V29.9986ZM181.87 0.228996H192.405L187.366 9.38887H186.908L181.87 0.228996Z" fill="black"/>
<path d="M199.129 15.8008H196.289V11.4498H210.993V15.8008H207.878L212.413 27.9376H212.55L217.131 15.8008H213.375V11.4498H224.781V15.8008H221.941L214.52 34.3495H206.641L199.129 15.8008Z" fill="black"/>
<path d="M231.925 34.8075C229.543 34.8075 227.695 34.2426 226.382 33.1129C225.069 31.9527 224.413 30.4108 224.413 28.4872C224.413 26.4415 225.222 24.8538 226.84 23.7241C228.459 22.5943 230.856 21.9074 234.032 21.6631C235.528 21.541 236.704 21.3425 237.559 21.0677C238.445 20.7929 239.086 20.4112 239.483 19.9227C239.911 19.4037 240.124 18.7319 240.124 17.9075C240.124 16.7778 239.911 15.9687 239.483 15.4802C239.055 14.9917 238.414 14.7474 237.559 14.7474C236.704 14.7474 235.773 15.0375 234.765 15.6176C233.788 16.1977 232.948 16.9152 232.246 17.7701C231.543 18.6251 231.146 19.4342 231.055 20.1975V20.5639H226.978V9.93846H231.009V11.9078C232.139 11.7857 233.192 11.633 234.169 11.4498C234.75 11.2972 235.36 11.1903 236.002 11.1292C236.643 11.0376 237.315 10.9918 238.017 10.9918C241.132 10.9918 243.56 11.8162 245.3 13.465C247.041 15.1138 247.911 17.419 247.911 20.3807V29.9986H250.843V34.3495H240.353V30.823C239.468 32.1664 238.307 33.174 236.872 33.8457C235.467 34.4869 233.818 34.8075 231.925 34.8075ZM235.269 30.5024C236.063 30.5024 236.841 30.2428 237.605 29.7238C238.399 29.1742 239.04 28.4414 239.529 27.5254C240.048 26.5789 240.308 25.5102 240.308 24.3194V21.8921C239.911 22.3195 239.407 22.7012 238.796 23.0371C238.185 23.3424 237.437 23.5714 236.551 23.7241C235.299 23.9378 234.353 24.3653 233.711 25.0064C233.07 25.6171 232.749 26.4568 232.749 27.5254C232.749 28.4109 232.978 29.1284 233.436 29.678C233.895 30.2276 234.505 30.5024 235.269 30.5024Z" fill="black"/>
<path d="M270.058 33.8457C269.386 34.09 268.455 34.2884 267.264 34.4411C266.622 34.5632 265.981 34.6548 265.34 34.7159C264.699 34.777 264.057 34.8075 263.416 34.8075C261.034 34.8075 258.896 34.3037 257.003 33.2961C255.11 32.258 253.629 30.8382 252.56 29.0368C251.521 27.2048 251.002 25.1591 251.002 22.8997C251.002 20.6097 251.521 18.564 252.56 16.7626C253.629 14.9611 255.11 13.5566 257.003 12.549C258.896 11.5109 261.034 10.9918 263.416 10.9918C264.546 10.9918 265.706 11.0987 266.897 11.3124C267.997 11.4956 268.897 11.6941 269.6 11.9078V9.93846H273.677L273.631 21.2051H269.371V20.8387C269.279 20.0448 268.913 19.2052 268.271 18.3197C267.63 17.4343 266.882 16.6862 266.027 16.0756C265.172 15.4649 264.393 15.1596 263.691 15.1596C262.805 15.1596 262.042 15.4496 261.4 16.0298C260.759 16.6099 260.255 17.4801 259.889 18.6403C259.553 19.7701 259.385 21.1898 259.385 22.8997C259.385 24.579 259.553 25.9988 259.889 27.159C260.255 28.2887 260.759 29.1436 261.4 29.7238C262.042 30.3039 262.805 30.594 263.691 30.594C264.454 30.594 265.294 30.3039 266.21 29.7238C267.126 29.1131 267.92 28.3651 268.592 27.4796C269.264 26.5942 269.676 25.7545 269.829 24.9606V24.5942H274.089V35.8609H270.058V33.8457Z" fill="black"/>
<path d="M278.119 31.3726H282.15V33.3419C282.15 34.1968 282.456 35.1128 283.066 36.0899C283.677 37.0975 284.41 37.9371 285.265 38.6088C286.151 39.3111 286.945 39.6622 287.647 39.6622C288.013 39.6622 288.319 39.5401 288.563 39.2958C288.807 39.0516 288.93 38.731 288.93 38.3341V38.2882C288.93 38.0135 288.823 37.6165 288.609 37.0975C288.426 36.6089 287.968 35.6014 287.235 34.0747C287.052 33.6778 286.838 33.2503 286.593 32.7923C286.38 32.3343 286.151 31.8458 285.906 31.3268L278.257 15.8008H275.508V11.4498H290.029V15.8008H287.326L291.128 24.7316C291.22 24.9759 291.327 25.2507 291.449 25.556C291.571 25.8308 291.693 26.1209 291.815 26.4262C292.09 27.0979 292.289 27.6323 292.411 28.0292C292.472 27.7544 292.533 27.5101 292.594 27.2964C292.655 27.0521 292.732 26.7926 292.823 26.5178L296.442 15.8008H292.64V11.4498H304V15.8008H300.885L295.663 29.3116C295.633 29.3726 295.617 29.4337 295.617 29.4948C295.617 29.5253 295.602 29.5711 295.572 29.6322C295.297 30.3955 295.098 31.0978 294.976 31.7389C294.884 32.3801 294.839 33.0824 294.839 33.8457V34.5785C294.839 36.5631 294.549 38.2577 293.968 39.6622C293.419 41.0667 292.625 42.1354 291.586 42.8682C290.548 43.601 289.342 43.9674 287.968 43.9674C287.296 43.9674 286.609 43.9063 285.906 43.7842C285.204 43.6926 284.547 43.5552 283.937 43.372C283.265 43.1888 282.7 42.9598 282.242 42.685V44.7918H278.119V31.3726Z" fill="black"/>
<path d="M0.824521 55.8179H62.3773V78.7176H0.824521V55.8179Z" fill="black"/>
</svg>
