<svg width="200" height="200" viewBox="0 0 200 200" fill="none" xmlns="http://www.w3.org/2000/svg">
<g clip-path="url(#clip0_1_284)">
<path d="M34 90.9535V126.57L64.7803 144.379L95.5605 126.569V90.9476L64.7803 73.1436L34 90.9535Z" fill="#5C35DC"/>
<path d="M104.439 90.9523V126.569L135.22 144.379L166 126.569V90.9464L135.22 73.1436L104.439 90.9523Z" fill="#5C35DC"/>
<path d="M100 12L69.2412 29.8099V65.4263L100 83.235L130.759 65.4263V47.6496L115.38 38.7155L115.364 20.9091L100 12Z" fill="#5C35DC"/>
<path d="M130.783 12L115.364 20.9091L130.783 29.7933L130.759 47.6496L146.139 38.7096V20.9044L130.783 12Z" fill="#5C35DC"/>
<path d="M81.0475 164.262L78.0583 185.152C78.0536 185.186 78.0038 185.186 77.9991 185.152L75.3733 164.263C75.3709 164.249 75.3591 164.237 75.3437 164.237H67.8949C67.8795 164.237 67.8676 164.248 67.8653 164.263L65.2395 185.153C65.2348 185.188 65.1862 185.188 65.1803 185.153L62.1911 164.262C62.1887 164.248 62.1769 164.237 62.1615 164.237H57.6202C57.6024 164.237 57.5882 164.254 57.5906 164.272L61.3813 188.444C61.3837 188.458 61.3955 188.469 61.4109 188.469H68.8479C68.8633 188.469 68.8751 188.458 68.8775 188.443L71.5897 167.591C71.5944 167.557 71.6441 167.557 71.6489 167.591L74.3611 188.443C74.3635 188.457 74.3753 188.469 74.3907 188.469H81.8277C81.8419 188.469 81.8549 188.458 81.8573 188.444L85.648 164.272C85.6504 164.254 85.6373 164.237 85.6184 164.237H81.0771C81.0629 164.237 81.0499 164.248 81.0475 164.262Z" fill="#5C35DC"/>
<path d="M164.466 165.395C163.431 164.189 161.956 163.576 160.083 163.576C157.688 163.576 155.895 164.655 154.751 166.785H154.733C154.414 165.896 153.887 165.149 153.165 164.564C152.355 163.909 151.326 163.576 150.107 163.576C148.963 163.576 147.953 163.861 147.105 164.423C146.388 164.896 145.813 165.593 145.389 166.499V164.267C145.389 164.251 145.376 164.237 145.36 164.237H140.926C140.91 164.237 140.896 164.251 140.896 164.267V188.44C140.896 188.456 140.91 188.469 140.926 188.469H145.36C145.376 188.469 145.389 188.456 145.389 188.44V171.918C145.389 170.694 145.671 169.698 146.225 168.956C146.76 168.241 147.506 167.894 148.507 167.894C149.328 167.894 149.964 168.178 150.451 168.761C150.957 169.366 151.203 170.121 151.203 171.068V188.44C151.203 188.456 151.216 188.469 151.233 188.469H155.666C155.683 188.469 155.696 188.456 155.696 188.44V172.2C155.696 170.703 155.988 169.593 156.565 168.902C157.131 168.223 157.85 167.893 158.767 167.893C159.732 167.893 160.408 168.184 160.831 168.781C161.281 169.415 161.509 170.247 161.509 171.257V188.44C161.509 188.456 161.522 188.469 161.538 188.469H166.001V170.029C166.001 168.144 165.485 166.585 164.467 165.395" fill="#5C35DC"/>
<path d="M112.504 185.833L109.695 188.978C109.684 188.989 109.665 188.991 109.652 188.98L104.705 184.68C104.695 184.671 104.681 184.67 104.669 184.676L98.7522 188.142C97.7554 188.714 96.71 188.999 95.57 188.999C93.9078 188.999 92.3878 188.38 91.0583 187.19C89.7762 185.951 89.1108 184.427 89.1108 182.57C89.1108 180.332 90.2982 178.14 92.3404 176.998L104.291 170.101C104.301 170.096 104.307 170.086 104.307 170.075V168.551C104.307 168.534 104.294 168.52 104.276 168.52H90.3278C90.3113 168.52 90.2971 168.507 90.2971 168.489V164.264C90.2971 164.247 90.3101 164.233 90.3278 164.233H108.55C108.566 164.233 108.581 164.246 108.581 164.264V182.363C108.581 182.372 108.584 182.38 108.591 182.386L112.499 185.785C112.512 185.796 112.513 185.816 112.501 185.828M96.6141 184.423L104.291 179.956C104.301 179.95 104.307 179.94 104.307 179.93V175.094C104.307 175.07 104.282 175.056 104.262 175.068L94.4773 180.708C93.7646 181.137 93.3846 181.756 93.3846 182.565C93.3846 183.756 94.4299 184.708 95.5214 184.708C95.9488 184.708 96.2815 184.613 96.6141 184.422" fill="#5C35DC"/>
<path d="M133.856 165.93C132.306 164.376 130.429 163.576 128.221 163.576C125.602 163.576 123.496 164.603 121.902 166.659C121.891 166.673 121.871 166.675 121.859 166.663L119.04 164.068C119.028 164.056 119.008 164.057 118.998 164.07L116.22 167.181C116.21 167.193 116.211 167.212 116.223 167.223L120.229 170.867C120.235 170.873 120.238 170.881 120.238 170.89V184.19C120.238 184.207 120.225 184.22 120.209 184.22H116.227C116.211 184.22 116.198 184.233 116.198 184.25V188.428C116.198 188.444 116.211 188.457 116.227 188.457H130.575C130.591 188.457 130.604 188.444 130.604 188.428V184.25C130.604 184.233 130.591 184.22 130.575 184.22H124.495C124.479 184.22 124.466 184.207 124.466 184.19V171.786C124.466 169.807 125.897 168.019 127.862 167.832C130.088 167.622 131.979 169.391 131.979 171.582V172.965C131.979 172.982 131.992 172.995 132.008 172.995H136.174C136.191 172.995 136.204 172.982 136.204 172.965V171.582C136.204 169.369 135.406 167.485 133.856 165.93Z" fill="#5C35DC"/>
<path d="M53.2318 178.398C52.9394 177.714 52.4954 177.114 51.9627 176.679C51.4655 176.18 50.8286 175.789 49.9726 175.457C49.0978 175.044 48.2856 174.804 47.6759 174.64C46.8839 174.429 46.0304 174.205 45.0715 174.023C43.1986 173.647 41.8111 173.18 40.9469 172.634C40.104 172.099 39.6766 171.395 39.6766 170.539C39.6766 169.547 40.0365 168.851 40.8143 168.345C41.9094 167.633 43.2613 167.442 44.5293 167.703C45.7569 167.956 46.8626 168.673 47.7932 169.491C47.9826 169.657 49.9146 171.439 49.8791 171.48L52.6576 168.323C52.6576 168.323 51.3199 166.964 50.6865 166.411C49.1759 165.092 47.3776 163.977 45.3544 163.657C43.343 163.339 41.0546 163.644 39.2422 164.584C38.7414 164.844 38.269 165.155 37.8322 165.514C36.2186 166.837 35.4005 168.577 35.4005 170.683C35.4005 172.789 36.0907 174.45 37.509 175.479C38.8396 176.48 40.7528 177.256 43.1974 177.785C45.358 178.246 46.9266 178.717 47.8713 179.191C48.771 179.577 49.2079 180.195 49.2079 181.081C49.2079 182.222 48.7497 183.085 47.8405 183.649C45.7948 184.919 42.9524 184.862 40.8842 183.671C39.9927 183.157 39.254 182.412 38.4715 181.75C37.8712 181.238 37.3042 180.687 36.7276 180.149C36.7205 180.143 36.7146 180.137 36.7052 180.124C36.7052 180.122 34 183.389 34 183.389C33.9918 183.398 35.3224 184.624 35.4384 184.73C37.2663 186.402 39.2374 187.785 41.6987 188.297C42.5771 188.48 43.4744 188.563 44.3718 188.563C47.0189 188.563 49.2493 187.865 51.0002 186.489C52.8364 185.084 53.7669 183.136 53.7669 180.701C53.7669 179.896 53.5798 179.096 53.2318 178.399" fill="#5C35DC"/>
</g>
<defs>
<clipPath id="clip0_1_284">
<rect width="132" height="177" fill="white" transform="translate(34 12)"/>
</clipPath>
</defs>
</svg>
